<svg xmlns="http://www.w3.org/2000/svg" width="28.727" height="35.253" viewBox="0 0 28.727 35.253"><defs><style>.a{fill:#fff;}</style></defs><g transform="translate(0 0)"><path class="a" d="M27.844,30.824A21.845,21.845,0,0,0,25.854,32.6a7.041,7.041,0,0,0-1.8,5.5,7.446,7.446,0,0,0,4.385,6.438c.249.124.311.218.218.529a20.081,20.081,0,0,1-4.7,7.651,4.49,4.49,0,0,1-5.007,1.026,26.273,26.273,0,0,0-2.644-.871,6.234,6.234,0,0,0-3.608.28c-.5.156-.964.373-1.431.529a4.382,4.382,0,0,1-5.443-1.275A21.922,21.922,0,0,1,.1,39.937a12.947,12.947,0,0,1,1-7.34,8.613,8.613,0,0,1,6.811-5.1,7.694,7.694,0,0,1,3.826.591c.653.249,1.306.435,1.959.684a2.488,2.488,0,0,0,1.773,0,27.2,27.2,0,0,1,4.292-1.306,7.991,7.991,0,0,1,7.589,2.8C27.533,30.451,27.689,30.638,27.844,30.824Z" transform="translate(0.033 -18.868)"/><path class="a" d="M45.871,7.409a7.647,7.647,0,0,1,4.6-6.656A11.461,11.461,0,0,1,52.465.1c.5-.124.622,0,.622.5A7.937,7.937,0,0,1,48.795,7.72a5.092,5.092,0,0,1-2.364.56c-.467,0-.622-.156-.56-.56Z" transform="translate(-31.585 -0.056)"/></g></svg>