<svg xmlns="http://www.w3.org/2000/svg" width="19.365" height="19.282" viewBox="0 0 19.365 19.282"><defs><style>.a,.b{fill:none;stroke:#2e4765;stroke-linecap:round;}.a{stroke-miterlimit:10;}.b{stroke-linejoin:round;}</style></defs><g transform="translate(0.5 0.5)"><path class="a" d="M270.991,313.418c-3.75-.549-6.476-2.209-6.476-4.171a2.476,2.476,0,0,1,.6-1.557" transform="translate(-264.515 -301.77)"/><path class="a" d="M375.712,307.694a2.475,2.475,0,0,1,.6,1.557,3.033,3.033,0,0,1-1.437,2.345" transform="translate(-357.949 -301.773)"/><path class="a" d="M265.117,328.686a2.476,2.476,0,0,0-.6,1.557c0,2.41,4.111,4.364,9.182,4.364a21.715,21.715,0,0,0,3.279-.254" transform="translate(-264.515 -319.546)"/><path class="a" d="M379.835,328.69a2.475,2.475,0,0,1,.6,1.557,2.534,2.534,0,0,1-.69,1.663" transform="translate(-362.072 -319.549)"/><path class="a" d="M282.278,349.683a2.475,2.475,0,0,1,.6,1.557c0,2.41-4.111,4.364-9.182,4.364s-9.182-1.954-9.182-4.364a2.476,2.476,0,0,1,.6-1.557" transform="translate(-264.515 -337.321)"/><path class="b" d="M280.408,279.44h0a5.949,5.949,0,0,0,.4,2.214,1.044,1.044,0,1,1-2,.568,1.048,1.048,0,0,1,.051-.548,5.654,5.654,0,0,0,.409-1.985h0a.9.9,0,0,0-.9-.9h-.952a.51.51,0,0,0-.51.51h0a1.514,1.514,0,0,0,.291.858,1.045,1.045,0,1,1-1.7-.025,1.311,1.311,0,0,0,.273-.773h0a.569.569,0,0,0-.569-.57h-.5a1,1,0,0,0-1,1v.611a1.216,1.216,0,0,0,.255.749,1.044,1.044,0,1,1-1.666.024,1.31,1.31,0,0,0,.273-.773v-.944a1.845,1.845,0,0,0-1.572-1.827c-3.745-.55-6.466-2.209-6.466-4.17,0-2.41,4.111-4.364,9.182-4.364s9.182,1.954,9.182,4.364a2.706,2.706,0,0,1-.6,1.557,6.918,6.918,0,0,0-1.87,4.534" transform="translate(-264.515 -269.093)"/><path class="b" d="M280.47,277.092c-4.856,0-7.955,1.858-7.955,3.137" transform="translate(-271.288 -275.865)"/></g></svg>