<svg xmlns="http://www.w3.org/2000/svg" width="23.278" height="20.126" viewBox="0 0 23.278 20.126"><defs><style>.a{fill:#fff;}</style></defs><path class="a" d="M18.151,9.422,13.517,2.465a1.05,1.05,0,0,0-.878-.445,1.033,1.033,0,0,0-.878.456L7.126,9.422H2.058A1.062,1.062,0,0,0,1,10.482a.9.9,0,0,0,.042.286L3.73,20.6a2.1,2.1,0,0,0,2.032,1.548H19.516A2.127,2.127,0,0,0,21.558,20.6l2.688-9.83.032-.286a1.062,1.062,0,0,0-1.058-1.06Zm-8.687,0,3.174-4.666,3.174,4.666ZM12.639,17.9a2.121,2.121,0,1,1,2.116-2.121A2.125,2.125,0,0,1,12.639,17.9Z" transform="translate(-1 -2.02)"/></svg>