<svg xmlns="http://www.w3.org/2000/svg" width="28.431" height="24.461" viewBox="0 0 28.431 24.461"><defs><style>.a,.b{fill:none;stroke:#2e4765;stroke-miterlimit:10;}.b{stroke-linecap:round;}</style></defs><g transform="translate(0.5 0.63)"><path class="a" d="M475.377,1078.533c1.308,0,1.308,2.563,2.616,2.563s1.308-2.563,2.615-2.563,1.307,2.563,2.614,2.563l-.733,2.839a1.029,1.029,0,0,1-1,.771H469.257a1.028,1.028,0,0,1-1-.771l-.733-2.839c1.307,0,1.307-2.563,2.614-2.563s1.308,2.563,2.615,2.563,1.308-2.563,2.616-2.563Z" transform="translate(-461.739 -1065.75)"/><path class="a" d="M479.492,1053.789a.938.938,0,0,0,.758-.355,1.13,1.13,0,0,0,.242-.745,8.941,8.941,0,0,0-8.846-8.792h0a8.941,8.941,0,0,0-8.846,8.792,1.13,1.13,0,0,0,.242.745.938.938,0,0,0,.758.355" transform="translate(-458.009 -1038.442)"/><path class="b" d="M485.457,1043.9a6.313,6.313,0,0,0-5.142,5.555" transform="translate(-471.82 -1038.442)"/><line class="b" y2="4.315" transform="translate(13.635 5.455)"/><path class="b" d="M504.609,1043.9a6.313,6.313,0,0,1,5.142,5.555" transform="translate(-490.974 -1038.442)"/><path class="b" d="M500.416,1030.895a1.538,1.538,0,1,0-1.538,1.538A1.538,1.538,0,0,0,500.416,1030.895Z" transform="translate(-485.243 -1026.979)"/><path class="b" d="M504.618,1020.494s-.2-1.9,1.283-2.379" transform="translate(-490.975 -1018.115)"/><path class="b" d="M477.889,1124.449a59.642,59.642,0,0,1-19.881,0" transform="translate(-454.233 -1101.952)"/><path class="b" d="M461.281,1097.36c3.8.492,6.314,1.352,6.314,2.33,0,1.528-6.141,2.766-13.716,2.766s-13.716-1.238-13.716-2.766c0-.965,2.449-1.815,6.161-2.31" transform="translate(-440.164 -1080.594)"/></g></svg>