<svg xmlns="http://www.w3.org/2000/svg" width="24.558" height="20.585" viewBox="0 0 24.558 20.585"><defs><style>.a,.b,.c{fill:none;stroke:#2e4765;}.a{stroke-linecap:round;}.a,.b{stroke-linejoin:round;}.c{stroke-miterlimit:10;}</style></defs><g transform="translate(0.5 0.5)"><path class="a" d="M100.173,649.856c0-2.063-3.97-3.736-8.868-3.736s-8.868,1.673-8.868,3.736,3.97,3.736,8.868,3.736S100.173,651.919,100.173,649.856Z" transform="translate(-79.526 -646.12)"/><path class="a" d="M82.836,686.917a1.861,1.861,0,0,0-.4,1.111c0,2.064,3.97,3.736,8.868,3.736s8.868-1.672,8.868-3.736a1.853,1.853,0,0,0-.391-1.1" transform="translate(-79.526 -679.31)"/><path class="a" d="M96.8,722.607a2.038,2.038,0,0,1,.429,1.209c0,2.267-4.362,4.105-9.744,4.105s-9.744-1.838-9.744-4.105a2.045,2.045,0,0,1,.438-1.221" transform="translate(-75.705 -708.336)"/><path class="a" d="M87.154,671.867l3.229,2.369s-7.779.155-11.779,5.284c-4-5.129-11.779-5.284-11.779-5.284l3.229-2.369" transform="translate(-66.825 -667.066)"/><path class="b" d="M94.674,700.767c-.3.872-1.143.72-1.911.8a1.113,1.113,0,0,0-.714.35c-.618.69-1,2.056-1.776,2.264-.95.254-2.253-1.27-3.223-1.141s-1.837,1.936-2.816,1.936-1.844-1.809-2.816-1.936-2.273,1.395-3.223,1.141c-.773-.208-1.158-1.574-1.776-2.264a1.113,1.113,0,0,0-.714-.35c-.769-.081-1.607.07-1.912-.8-.274-.784.641-2.185,1.9-2.492,1.04,1.574,4.471,2.73,8.542,2.73s7.5-1.156,8.542-2.73C94.033,698.581,94.948,699.983,94.674,700.767Z" transform="translate(-72.455 -688.551)"/><g transform="translate(8.298 2.703)"><line class="c" x1="0.679" transform="translate(0 0)"/><line class="c" x2="0.679" transform="translate(1.57 2.066)"/><line class="c" x1="0.679" transform="translate(3.141 0)"/><line class="c" x2="0.679" transform="translate(4.711 2.066)"/><line class="c" x1="0.679" transform="translate(6.282 0)"/></g></g></svg>