<svg xmlns="http://www.w3.org/2000/svg" width="24.018" height="20.323" viewBox="0 0 24.018 20.323"><defs><style>.a{fill:#fff;}</style></defs><path class="a" d="M17.884,26.136a2.313,2.313,0,0,1,4.238,0h4.347a.926.926,0,0,1,.924.924h0a.926.926,0,0,1-.924.924H22.122a2.313,2.313,0,0,1-4.238,0H4.3a.926.926,0,0,1-.924-.924h0a.926.926,0,0,1,.924-.924Z" transform="translate(-3.375 -9.046)"/><path class="a" d="M8.646,16.573a2.313,2.313,0,0,1,4.238,0H26.469a.926.926,0,0,1,.924.924h0a.926.926,0,0,1-.924.924H12.884a2.313,2.313,0,0,1-4.238,0H4.3a.926.926,0,0,1-.924-.924h0a.926.926,0,0,1,.924-.924Z" transform="translate(-3.375 -7.335)"/><path class="a" d="M17.884,7.011a2.313,2.313,0,0,1,4.238,0h4.347a.926.926,0,0,1,.924.924h0a.926.926,0,0,1-.924.924H22.122a2.313,2.313,0,0,1-4.238,0H4.3a.926.926,0,0,1-.924-.924h0A.926.926,0,0,1,4.3,7.011Z" transform="translate(-3.375 -5.625)"/></svg>