<svg xmlns="http://www.w3.org/2000/svg" width="25.511" height="28.38" viewBox="0 0 25.511 28.38"><defs><style>.a{fill:#fff;}</style></defs><path class="a" d="M0,14.534V3.1C0,.475,1.348-.271,3.635,1.029L17,8.612c2.287,1.3,4.6,2.576,6.861,3.9,2.191,1.276,2.215,2.889.024,4.141Q13.733,22.466,3.539,28.207C1.324,29.459,0,28.64,0,26.065ZM.987,26.763,13.168,14.654Q7.1,8.552.987,2.329Zm1.107,1.011c.024.072.048.12.072.193,5.224-2.961,10.423-5.9,15.479-8.762-1.18-1.276-2.335-2.479-3.37-3.587C10.231,19.661,6.163,23.73,2.094,27.774ZM17.862,10.056c-5.32-3.009-10.544-5.946-15.912-9C6.211,5.338,10.3,9.43,14.323,13.475,15.431,12.439,16.586,11.284,17.862,10.056Zm1.083,8.4c1.613-.915,3.322-1.854,4.983-2.865.891-.554.963-1.4.1-1.926-1.685-1.083-3.466-2.046-5.079-2.985-1.42,1.4-2.7,2.624-3.924,3.828C16.321,15.81,17.6,17.11,18.945,18.458Z" transform="translate(0 -0.404)"/></svg>